<?xml version="1.0" encoding="UTF-8" standalone="no"?>
<!DOCTYPE svg PUBLIC "-//W3C//DTD SVG 1.1//EN"
 "http://www.w3.org/Graphics/SVG/1.1/DTD/svg11.dtd">
<!-- Generated by graphviz version 2.44.1 (20200629.0846)
 -->
<!-- Title: dependencies Pages: 1 -->
<svg width="2498pt" height="284pt"
 viewBox="0.00 0.00 2498.00 284.00" xmlns="http://www.w3.org/2000/svg" xmlns:xlink="http://www.w3.org/1999/xlink">
<g id="graph0" class="graph" transform="scale(1 1) rotate(0) translate(4 280)">
<title>dependencies</title>
<polygon fill="white" stroke="transparent" points="-4,4 -4,-280 2494,-280 2494,4 -4,4"/>
<text text-anchor="start" x="1224.01" y="-42.4" font-family="sans-serif" font-weight="bold" font-size="14.00">Legend</text>
<polygon fill="#ffffb3" stroke="transparent" points="1011,-10 1011,-30 1031,-30 1031,-10 1011,-10"/>
<text text-anchor="start" x="1034.63" y="-15.4" font-family="sans-serif" font-size="14.00"> &#160;Declarations</text>
<polygon fill="#8dd3c7" stroke="transparent" points="1124,-10 1124,-30 1144,-30 1144,-10 1124,-10"/>
<text text-anchor="start" x="1147.73" y="-15.4" font-family="sans-serif" font-size="14.00"> &#160;Module</text>
<polygon fill="#80b1d3" stroke="transparent" points="1210,-10 1210,-30 1230,-30 1230,-10 1210,-10"/>
<text text-anchor="start" x="1233.78" y="-15.4" font-family="sans-serif" font-size="14.00"> &#160;Bootstrap</text>
<polygon fill="#fdb462" stroke="transparent" points="1307,-10 1307,-30 1327,-30 1327,-10 1307,-10"/>
<text text-anchor="start" x="1330.67" y="-15.4" font-family="sans-serif" font-size="14.00"> &#160;Providers</text>
<polygon fill="#fb8072" stroke="transparent" points="1403,-10 1403,-30 1423,-30 1423,-10 1403,-10"/>
<text text-anchor="start" x="1426.73" y="-15.4" font-family="sans-serif" font-size="14.00"> &#160;Exports</text>
<g id="clust1" class="cluster">
<title>cluster_AppModule</title>
<polygon fill="none" stroke="black" stroke-dasharray="1,5" points="8,-70 8,-268 2482,-268 2482,-70 8,-70"/>
</g>
<g id="clust2" class="cluster">
<title>cluster_AppModule_declarations</title>
<polygon fill="none" stroke="black" points="1469,-78 1469,-130 2474,-130 2474,-78 1469,-78"/>
</g>
<g id="clust12" class="cluster">
<title>cluster_AppModule_bootstrap</title>
<polygon fill="none" stroke="black" points="1232,-208 1232,-260 1356,-260 1356,-208 1232,-208"/>
</g>
<g id="clust13" class="cluster">
<title>cluster_AppModule_providers</title>
<polygon fill="none" stroke="black" points="1363,-78 1363,-130 1461,-130 1461,-78 1363,-78"/>
</g>
<g id="clust10" class="cluster">
<title>cluster_AppModule_imports</title>
<polygon fill="none" stroke="black" points="16,-78 16,-130 1355,-130 1355,-78 16,-78"/>
</g>
<!-- AppComponent -->
<g id="node1" class="node">
<title>AppComponent</title>
<polygon fill="#ffffb3" stroke="black" points="2465.94,-122 2360.06,-122 2360.06,-86 2465.94,-86 2465.94,-122"/>
<text text-anchor="middle" x="2413" y="-99.8" font-family="Times,serif" font-size="14.00">AppComponent</text>
</g>
<!-- AppModule -->
<g id="node8" class="node">
<title>AppModule</title>
<polygon fill="#8dd3c7" stroke="black" points="1335.66,-187 1332.66,-191 1311.66,-191 1308.66,-187 1252.34,-187 1252.34,-151 1335.66,-151 1335.66,-187"/>
<text text-anchor="middle" x="1294" y="-164.8" font-family="Times,serif" font-size="14.00">AppModule</text>
</g>
<!-- AppComponent&#45;&gt;AppModule -->
<g id="edge1" class="edge">
<title>AppComponent&#45;&gt;AppModule</title>
<path fill="none" stroke="black" d="M2413,-122.32C2413,-145.66 2413,-183 2413,-183 2413,-183 1345.82,-183 1345.82,-183"/>
<polygon fill="black" stroke="black" points="1345.82,-179.5 1335.82,-183 1345.82,-186.5 1345.82,-179.5"/>
</g>
<!-- LoginRoomComponent -->
<g id="node2" class="node">
<title>LoginRoomComponent</title>
<polygon fill="#ffffb3" stroke="black" points="2342.5,-122 2193.5,-122 2193.5,-86 2342.5,-86 2342.5,-122"/>
<text text-anchor="middle" x="2268" y="-99.8" font-family="Times,serif" font-size="14.00">LoginRoomComponent</text>
</g>
<!-- LoginRoomComponent&#45;&gt;AppModule -->
<g id="edge2" class="edge">
<title>LoginRoomComponent&#45;&gt;AppModule</title>
<path fill="none" stroke="black" d="M2268,-122.16C2268,-144.35 2268,-179 2268,-179 2268,-179 1345.85,-179 1345.85,-179"/>
<polygon fill="black" stroke="black" points="1345.85,-175.5 1335.85,-179 1345.85,-182.5 1345.85,-175.5"/>
</g>
<!-- LoginVentComponent -->
<g id="node3" class="node">
<title>LoginVentComponent</title>
<polygon fill="#ffffb3" stroke="black" points="2175.99,-122 2034.01,-122 2034.01,-86 2175.99,-86 2175.99,-122"/>
<text text-anchor="middle" x="2105" y="-99.8" font-family="Times,serif" font-size="14.00">LoginVentComponent</text>
</g>
<!-- LoginVentComponent&#45;&gt;AppModule -->
<g id="edge3" class="edge">
<title>LoginVentComponent&#45;&gt;AppModule</title>
<path fill="none" stroke="black" d="M2105,-122.28C2105,-143.32 2105,-175 2105,-175 2105,-175 1345.9,-175 1345.9,-175"/>
<polygon fill="black" stroke="black" points="1345.9,-171.5 1335.9,-175 1345.9,-178.5 1345.9,-171.5"/>
</g>
<!-- MainComponent -->
<g id="node4" class="node">
<title>MainComponent</title>
<polygon fill="#ffffb3" stroke="black" points="2016.38,-122 1905.62,-122 1905.62,-86 2016.38,-86 2016.38,-122"/>
<text text-anchor="middle" x="1961" y="-99.8" font-family="Times,serif" font-size="14.00">MainComponent</text>
</g>
<!-- MainComponent&#45;&gt;AppModule -->
<g id="edge4" class="edge">
<title>MainComponent&#45;&gt;AppModule</title>
<path fill="none" stroke="black" d="M1961,-122.31C1961,-142.15 1961,-171 1961,-171 1961,-171 1345.72,-171 1345.72,-171"/>
<polygon fill="black" stroke="black" points="1345.72,-167.5 1335.72,-171 1345.72,-174.5 1345.72,-167.5"/>
</g>
<!-- MoodComponent -->
<g id="node5" class="node">
<title>MoodComponent</title>
<polygon fill="#ffffb3" stroke="black" points="1887.28,-122 1772.72,-122 1772.72,-86 1887.28,-86 1887.28,-122"/>
<text text-anchor="middle" x="1830" y="-99.8" font-family="Times,serif" font-size="14.00">MoodComponent</text>
</g>
<!-- MoodComponent&#45;&gt;AppModule -->
<g id="edge5" class="edge">
<title>MoodComponent&#45;&gt;AppModule</title>
<path fill="none" stroke="black" d="M1830,-122.22C1830,-140.83 1830,-167 1830,-167 1830,-167 1346.06,-167 1346.06,-167"/>
<polygon fill="black" stroke="black" points="1346.06,-163.5 1336.06,-167 1346.06,-170.5 1346.06,-163.5"/>
</g>
<!-- ChangeVentComponent -->
<g id="node6" class="node">
<title>ChangeVentComponent</title>
<polygon fill="#ffffb3" stroke="black" points="1754.81,-122 1603.19,-122 1603.19,-86 1754.81,-86 1754.81,-122"/>
<text text-anchor="middle" x="1679" y="-99.8" font-family="Times,serif" font-size="14.00">ChangeVentComponent</text>
</g>
<!-- ChangeVentComponent&#45;&gt;AppModule -->
<g id="edge6" class="edge">
<title>ChangeVentComponent&#45;&gt;AppModule</title>
<path fill="none" stroke="black" d="M1679,-122.02C1679,-139.37 1679,-163 1679,-163 1679,-163 1345.93,-163 1345.93,-163"/>
<polygon fill="black" stroke="black" points="1345.93,-159.5 1335.93,-163 1345.93,-166.5 1345.93,-159.5"/>
</g>
<!-- QuizComponent -->
<g id="node7" class="node">
<title>QuizComponent</title>
<polygon fill="#ffffb3" stroke="black" points="1585.05,-122 1476.95,-122 1476.95,-86 1585.05,-86 1585.05,-122"/>
<text text-anchor="middle" x="1531" y="-99.8" font-family="Times,serif" font-size="14.00">QuizComponent</text>
</g>
<!-- QuizComponent&#45;&gt;AppModule -->
<g id="edge7" class="edge">
<title>QuizComponent&#45;&gt;AppModule</title>
<path fill="none" stroke="black" d="M1531,-122.01C1531,-138.05 1531,-159 1531,-159 1531,-159 1345.83,-159 1345.83,-159"/>
<polygon fill="black" stroke="black" points="1345.83,-155.5 1335.83,-159 1345.83,-162.5 1345.83,-155.5"/>
</g>
<!-- AppComponent  -->
<g id="node18" class="node">
<title>AppComponent </title>
<polygon fill="#80b1d3" stroke="black" points="1348.44,-252 1239.56,-252 1239.56,-216 1348.44,-216 1348.44,-252"/>
<text text-anchor="middle" x="1294" y="-229.8" font-family="Times,serif" font-size="14.00">AppComponent </text>
</g>
<!-- AppModule&#45;&gt;AppComponent  -->
<g id="edge17" class="edge">
<title>AppModule&#45;&gt;AppComponent </title>
<path fill="none" stroke="black" stroke-dasharray="1,5" d="M1294,-187.11C1294,-187.11 1294,-205.99 1294,-205.99"/>
<polygon fill="black" stroke="black" points="1290.5,-205.99 1294,-215.99 1297.5,-205.99 1290.5,-205.99"/>
</g>
<!-- BrowserModule -->
<g id="node9" class="node">
<title>BrowserModule</title>
<polygon fill="#8dd3c7" stroke="black" points="1347.47,-122 1344.47,-126 1323.47,-126 1320.47,-122 1240.53,-122 1240.53,-86 1347.47,-86 1347.47,-122"/>
<text text-anchor="middle" x="1294" y="-99.8" font-family="Times,serif" font-size="14.00">BrowserModule</text>
</g>
<!-- BrowserModule&#45;&gt;AppModule -->
<g id="edge8" class="edge">
<title>BrowserModule&#45;&gt;AppModule</title>
<path fill="none" stroke="black" d="M1294,-122.11C1294,-122.11 1294,-140.99 1294,-140.99"/>
<polygon fill="black" stroke="black" points="1290.5,-140.99 1294,-150.99 1297.5,-140.99 1290.5,-140.99"/>
</g>
<!-- AppRoutingModule -->
<g id="node10" class="node">
<title>AppRoutingModule</title>
<polygon fill="#8dd3c7" stroke="black" points="1222.27,-122 1219.27,-126 1198.27,-126 1195.27,-122 1093.73,-122 1093.73,-86 1222.27,-86 1222.27,-122"/>
<text text-anchor="middle" x="1158" y="-99.8" font-family="Times,serif" font-size="14.00">AppRoutingModule</text>
</g>
<!-- AppRoutingModule&#45;&gt;AppModule -->
<g id="edge9" class="edge">
<title>AppRoutingModule&#45;&gt;AppModule</title>
<path fill="none" stroke="black" d="M1158,-122.12C1158,-136.78 1158,-155 1158,-155 1158,-155 1242.09,-155 1242.09,-155"/>
<polygon fill="black" stroke="black" points="1242.09,-158.5 1252.09,-155 1242.09,-151.5 1242.09,-158.5"/>
</g>
<!-- BrowserAnimationsModule -->
<g id="node11" class="node">
<title>BrowserAnimationsModule</title>
<polygon fill="#8dd3c7" stroke="black" points="1075.3,-122 1072.3,-126 1051.3,-126 1048.3,-122 902.7,-122 902.7,-86 1075.3,-86 1075.3,-122"/>
<text text-anchor="middle" x="989" y="-99.8" font-family="Times,serif" font-size="14.00">BrowserAnimationsModule</text>
</g>
<!-- BrowserAnimationsModule&#45;&gt;AppModule -->
<g id="edge10" class="edge">
<title>BrowserAnimationsModule&#45;&gt;AppModule</title>
<path fill="none" stroke="black" d="M989,-122.01C989,-138.05 989,-159 989,-159 989,-159 1242.23,-159 1242.23,-159"/>
<polygon fill="black" stroke="black" points="1242.23,-162.5 1252.23,-159 1242.23,-155.5 1242.23,-162.5"/>
</g>
<!-- MatFormFieldModule -->
<g id="node12" class="node">
<title>MatFormFieldModule</title>
<polygon fill="#8dd3c7" stroke="black" points="884.71,-122 881.71,-126 860.71,-126 857.71,-122 743.29,-122 743.29,-86 884.71,-86 884.71,-122"/>
<text text-anchor="middle" x="814" y="-99.8" font-family="Times,serif" font-size="14.00">MatFormFieldModule</text>
</g>
<!-- MatFormFieldModule&#45;&gt;AppModule -->
<g id="edge11" class="edge">
<title>MatFormFieldModule&#45;&gt;AppModule</title>
<path fill="none" stroke="black" d="M814,-122.02C814,-139.37 814,-163 814,-163 814,-163 1242.24,-163 1242.24,-163"/>
<polygon fill="black" stroke="black" points="1242.24,-166.5 1252.24,-163 1242.24,-159.5 1242.24,-166.5"/>
</g>
<!-- MatButtonModule -->
<g id="node13" class="node">
<title>MatButtonModule</title>
<polygon fill="#8dd3c7" stroke="black" points="725.22,-122 722.22,-126 701.22,-126 698.22,-122 604.78,-122 604.78,-86 725.22,-86 725.22,-122"/>
<text text-anchor="middle" x="665" y="-99.8" font-family="Times,serif" font-size="14.00">MatButtonModule</text>
</g>
<!-- MatButtonModule&#45;&gt;AppModule -->
<g id="edge12" class="edge">
<title>MatButtonModule&#45;&gt;AppModule</title>
<path fill="none" stroke="black" d="M665,-122.22C665,-140.83 665,-167 665,-167 665,-167 1242.24,-167 1242.24,-167"/>
<polygon fill="black" stroke="black" points="1242.24,-170.5 1252.24,-167 1242.24,-163.5 1242.24,-170.5"/>
</g>
<!-- FormsModule -->
<g id="node14" class="node">
<title>FormsModule</title>
<polygon fill="#8dd3c7" stroke="black" points="586.83,-122 583.83,-126 562.83,-126 559.83,-122 491.17,-122 491.17,-86 586.83,-86 586.83,-122"/>
<text text-anchor="middle" x="539" y="-99.8" font-family="Times,serif" font-size="14.00">FormsModule</text>
</g>
<!-- FormsModule&#45;&gt;AppModule -->
<g id="edge13" class="edge">
<title>FormsModule&#45;&gt;AppModule</title>
<path fill="none" stroke="black" d="M539,-122.31C539,-142.15 539,-171 539,-171 539,-171 1242.33,-171 1242.33,-171"/>
<polygon fill="black" stroke="black" points="1242.33,-174.5 1252.33,-171 1242.33,-167.5 1242.33,-174.5"/>
</g>
<!-- ReactiveFormsModule -->
<g id="node15" class="node">
<title>ReactiveFormsModule</title>
<polygon fill="#8dd3c7" stroke="black" points="473.3,-122 470.3,-126 449.3,-126 446.3,-122 328.7,-122 328.7,-86 473.3,-86 473.3,-122"/>
<text text-anchor="middle" x="401" y="-99.8" font-family="Times,serif" font-size="14.00">ReactiveFormsModule</text>
</g>
<!-- ReactiveFormsModule&#45;&gt;AppModule -->
<g id="edge14" class="edge">
<title>ReactiveFormsModule&#45;&gt;AppModule</title>
<path fill="none" stroke="black" d="M401,-122.28C401,-143.32 401,-175 401,-175 401,-175 1242.13,-175 1242.13,-175"/>
<polygon fill="black" stroke="black" points="1242.13,-178.5 1252.13,-175 1242.13,-171.5 1242.13,-178.5"/>
</g>
<!-- HttpClientModule -->
<g id="node16" class="node">
<title>HttpClientModule</title>
<polygon fill="#8dd3c7" stroke="black" points="311.16,-122 308.16,-126 287.16,-126 284.16,-122 192.84,-122 192.84,-86 311.16,-86 311.16,-122"/>
<text text-anchor="middle" x="252" y="-99.8" font-family="Times,serif" font-size="14.00">HttpClientModule</text>
</g>
<!-- HttpClientModule&#45;&gt;AppModule -->
<g id="edge15" class="edge">
<title>HttpClientModule&#45;&gt;AppModule</title>
<path fill="none" stroke="black" d="M252,-122.16C252,-144.35 252,-179 252,-179 252,-179 1242.19,-179 1242.19,-179"/>
<polygon fill="black" stroke="black" points="1242.19,-182.5 1252.19,-179 1242.19,-175.5 1242.19,-182.5"/>
</g>
<!-- MatSlideToggleModule -->
<g id="node17" class="node">
<title>MatSlideToggleModule</title>
<polygon fill="#8dd3c7" stroke="black" points="174.04,-122 171.04,-126 150.04,-126 147.04,-122 23.96,-122 23.96,-86 174.04,-86 174.04,-122"/>
<text text-anchor="middle" x="99" y="-99.8" font-family="Times,serif" font-size="14.00">MatSlideToggleModule</text>
</g>
<!-- MatSlideToggleModule&#45;&gt;AppModule -->
<g id="edge16" class="edge">
<title>MatSlideToggleModule&#45;&gt;AppModule</title>
<path fill="none" stroke="black" d="M99,-122.32C99,-145.66 99,-183 99,-183 99,-183 1242.17,-183 1242.17,-183"/>
<polygon fill="black" stroke="black" points="1242.17,-186.5 1252.17,-183 1242.17,-179.5 1242.17,-186.5"/>
</g>
<!-- Globals -->
<g id="node19" class="node">
<title>Globals</title>
<ellipse fill="#fdb462" stroke="black" cx="1412" cy="-104" rx="41.15" ry="18"/>
<text text-anchor="middle" x="1412" y="-99.8" font-family="Times,serif" font-size="14.00">Globals</text>
</g>
<!-- Globals&#45;&gt;AppModule -->
<g id="edge18" class="edge">
<title>Globals&#45;&gt;AppModule</title>
<path fill="none" stroke="black" d="M1412,-122.12C1412,-136.78 1412,-155 1412,-155 1412,-155 1345.93,-155 1345.93,-155"/>
<polygon fill="black" stroke="black" points="1345.93,-151.5 1335.93,-155 1345.93,-158.5 1345.93,-151.5"/>
</g>
</g>
</svg>
