<?xml version="1.0" encoding="UTF-8" standalone="no"?>
<!DOCTYPE svg PUBLIC "-//W3C//DTD SVG 1.1//EN"
 "http://www.w3.org/Graphics/SVG/1.1/DTD/svg11.dtd">
<!-- Generated by graphviz version 2.44.1 (20200629.0846)
 -->
<!-- Title: dependencies Pages: 1 -->
<svg width="2841pt" height="290pt"
 viewBox="0.00 0.00 2841.00 290.00" xmlns="http://www.w3.org/2000/svg" xmlns:xlink="http://www.w3.org/1999/xlink">
<g id="graph0" class="graph" transform="scale(1 1) rotate(0) translate(4 286)">
<title>dependencies</title>
<polygon fill="white" stroke="transparent" points="-4,4 -4,-286 2837,-286 2837,4 -4,4"/>
<text text-anchor="start" x="1395.51" y="-42.4" font-family="sans-serif" font-weight="bold" font-size="14.00">Legend</text>
<polygon fill="#ffffb3" stroke="transparent" points="1182.5,-10 1182.5,-30 1202.5,-30 1202.5,-10 1182.5,-10"/>
<text text-anchor="start" x="1206.13" y="-15.4" font-family="sans-serif" font-size="14.00"> &#160;Declarations</text>
<polygon fill="#8dd3c7" stroke="transparent" points="1295.5,-10 1295.5,-30 1315.5,-30 1315.5,-10 1295.5,-10"/>
<text text-anchor="start" x="1319.23" y="-15.4" font-family="sans-serif" font-size="14.00"> &#160;Module</text>
<polygon fill="#80b1d3" stroke="transparent" points="1381.5,-10 1381.5,-30 1401.5,-30 1401.5,-10 1381.5,-10"/>
<text text-anchor="start" x="1405.28" y="-15.4" font-family="sans-serif" font-size="14.00"> &#160;Bootstrap</text>
<polygon fill="#fdb462" stroke="transparent" points="1478.5,-10 1478.5,-30 1498.5,-30 1498.5,-10 1478.5,-10"/>
<text text-anchor="start" x="1502.17" y="-15.4" font-family="sans-serif" font-size="14.00"> &#160;Providers</text>
<polygon fill="#fb8072" stroke="transparent" points="1574.5,-10 1574.5,-30 1594.5,-30 1594.5,-10 1574.5,-10"/>
<text text-anchor="start" x="1598.23" y="-15.4" font-family="sans-serif" font-size="14.00"> &#160;Exports</text>
<g id="clust1" class="cluster">
<title>cluster_AppModule</title>
<polygon fill="none" stroke="black" stroke-dasharray="1,5" points="8,-70 8,-274 2481,-274 2481,-70 8,-70"/>
</g>
<g id="clust2" class="cluster">
<title>cluster_AppModule_declarations</title>
<polygon fill="none" stroke="black" points="122,-78 122,-130 1127,-130 1127,-78 122,-78"/>
</g>
<g id="clust10" class="cluster">
<title>cluster_AppModule_imports</title>
<polygon fill="none" stroke="black" points="1135,-78 1135,-130 2473,-130 2473,-78 1135,-78"/>
</g>
<g id="clust12" class="cluster">
<title>cluster_AppModule_bootstrap</title>
<polygon fill="none" stroke="black" points="1140,-214 1140,-266 1264,-266 1264,-214 1140,-214"/>
</g>
<g id="clust13" class="cluster">
<title>cluster_AppModule_providers</title>
<polygon fill="none" stroke="black" points="16,-78 16,-130 114,-130 114,-78 16,-78"/>
</g>
<g id="clust14" class="cluster">
<title>cluster_AppRoutingModule</title>
<polygon fill="none" stroke="black" stroke-dasharray="1,5" points="2489,-138 2489,-206 2825,-206 2825,-138 2489,-138"/>
</g>
<g id="clust16" class="cluster">
<title>cluster_AppRoutingModule_imports</title>
<polygon fill="none" stroke="black" points="2623,-146 2623,-198 2817,-198 2817,-146 2623,-146"/>
</g>
<g id="clust17" class="cluster">
<title>cluster_AppRoutingModule_exports</title>
<polygon fill="none" stroke="black" points="2497,-146 2497,-198 2615,-198 2615,-146 2497,-146"/>
</g>
<!-- AppComponent -->
<g id="node1" class="node">
<title>AppComponent</title>
<polygon fill="#ffffb3" stroke="black" points="1118.94,-122 1013.06,-122 1013.06,-86 1118.94,-86 1118.94,-122"/>
<text text-anchor="middle" x="1066" y="-99.8" font-family="Times,serif" font-size="14.00">AppComponent</text>
</g>
<!-- AppModule -->
<g id="node8" class="node">
<title>AppModule</title>
<polygon fill="#8dd3c7" stroke="black" points="1243.66,-190 1240.66,-194 1219.66,-194 1216.66,-190 1160.34,-190 1160.34,-154 1243.66,-154 1243.66,-190"/>
<text text-anchor="middle" x="1202" y="-167.8" font-family="Times,serif" font-size="14.00">AppModule</text>
</g>
<!-- AppComponent&#45;&gt;AppModule -->
<g id="edge1" class="edge">
<title>AppComponent&#45;&gt;AppModule</title>
<path fill="none" stroke="black" d="M1066,-122.28C1066,-137.95 1066,-158 1066,-158 1066,-158 1150.09,-158 1150.09,-158"/>
<polygon fill="black" stroke="black" points="1150.09,-161.5 1160.09,-158 1150.09,-154.5 1150.09,-161.5"/>
</g>
<!-- LoginRoomComponent -->
<g id="node2" class="node">
<title>LoginRoomComponent</title>
<polygon fill="#ffffb3" stroke="black" points="995.5,-122 846.5,-122 846.5,-86 995.5,-86 995.5,-122"/>
<text text-anchor="middle" x="921" y="-99.8" font-family="Times,serif" font-size="14.00">LoginRoomComponent</text>
</g>
<!-- LoginRoomComponent&#45;&gt;AppModule -->
<g id="edge2" class="edge">
<title>LoginRoomComponent&#45;&gt;AppModule</title>
<path fill="none" stroke="black" d="M921,-122.03C921,-139.06 921,-162 921,-162 921,-162 1150.23,-162 1150.23,-162"/>
<polygon fill="black" stroke="black" points="1150.23,-165.5 1160.23,-162 1150.23,-158.5 1150.23,-165.5"/>
</g>
<!-- LoginVentComponent -->
<g id="node3" class="node">
<title>LoginVentComponent</title>
<polygon fill="#ffffb3" stroke="black" points="828.99,-122 687.01,-122 687.01,-86 828.99,-86 828.99,-122"/>
<text text-anchor="middle" x="758" y="-99.8" font-family="Times,serif" font-size="14.00">LoginVentComponent</text>
</g>
<!-- LoginVentComponent&#45;&gt;AppModule -->
<g id="edge3" class="edge">
<title>LoginVentComponent&#45;&gt;AppModule</title>
<path fill="none" stroke="black" d="M758,-122.27C758,-140.56 758,-166 758,-166 758,-166 1150.23,-166 1150.23,-166"/>
<polygon fill="black" stroke="black" points="1150.23,-169.5 1160.23,-166 1150.23,-162.5 1150.23,-169.5"/>
</g>
<!-- MainComponent -->
<g id="node4" class="node">
<title>MainComponent</title>
<polygon fill="#ffffb3" stroke="black" points="669.38,-122 558.62,-122 558.62,-86 669.38,-86 669.38,-122"/>
<text text-anchor="middle" x="614" y="-99.8" font-family="Times,serif" font-size="14.00">MainComponent</text>
</g>
<!-- MainComponent&#45;&gt;AppModule -->
<g id="edge4" class="edge">
<title>MainComponent&#45;&gt;AppModule</title>
<path fill="none" stroke="black" d="M614,-122.03C614,-141.58 614,-170 614,-170 614,-170 1150.18,-170 1150.18,-170"/>
<polygon fill="black" stroke="black" points="1150.18,-173.5 1160.18,-170 1150.18,-166.5 1150.18,-173.5"/>
</g>
<!-- MoodComponent -->
<g id="node5" class="node">
<title>MoodComponent</title>
<polygon fill="#ffffb3" stroke="black" points="540.28,-122 425.72,-122 425.72,-86 540.28,-86 540.28,-122"/>
<text text-anchor="middle" x="483" y="-99.8" font-family="Times,serif" font-size="14.00">MoodComponent</text>
</g>
<!-- MoodComponent&#45;&gt;AppModule -->
<g id="edge5" class="edge">
<title>MoodComponent&#45;&gt;AppModule</title>
<path fill="none" stroke="black" d="M483,-122.03C483,-142.77 483,-174 483,-174 483,-174 1150.24,-174 1150.24,-174"/>
<polygon fill="black" stroke="black" points="1150.24,-177.5 1160.24,-174 1150.24,-170.5 1150.24,-177.5"/>
</g>
<!-- ChangeVentComponent -->
<g id="node6" class="node">
<title>ChangeVentComponent</title>
<polygon fill="#ffffb3" stroke="black" points="407.81,-122 256.19,-122 256.19,-86 407.81,-86 407.81,-122"/>
<text text-anchor="middle" x="332" y="-99.8" font-family="Times,serif" font-size="14.00">ChangeVentComponent</text>
</g>
<!-- ChangeVentComponent&#45;&gt;AppModule -->
<g id="edge6" class="edge">
<title>ChangeVentComponent&#45;&gt;AppModule</title>
<path fill="none" stroke="black" d="M332,-122.29C332,-144.21 332,-178 332,-178 332,-178 1150.33,-178 1150.33,-178"/>
<polygon fill="black" stroke="black" points="1150.33,-181.5 1160.33,-178 1150.33,-174.5 1150.33,-181.5"/>
</g>
<!-- QuizComponent -->
<g id="node7" class="node">
<title>QuizComponent</title>
<polygon fill="#ffffb3" stroke="black" points="238.05,-122 129.95,-122 129.95,-86 238.05,-86 238.05,-122"/>
<text text-anchor="middle" x="184" y="-99.8" font-family="Times,serif" font-size="14.00">QuizComponent</text>
</g>
<!-- QuizComponent&#45;&gt;AppModule -->
<g id="edge7" class="edge">
<title>QuizComponent&#45;&gt;AppModule</title>
<path fill="none" stroke="black" d="M184,-122.09C184,-145.13 184,-182 184,-182 184,-182 1150.2,-182 1150.2,-182"/>
<polygon fill="black" stroke="black" points="1150.2,-185.5 1160.2,-182 1150.2,-178.5 1150.2,-185.5"/>
</g>
<!-- AppComponent  -->
<g id="node18" class="node">
<title>AppComponent </title>
<polygon fill="#80b1d3" stroke="black" points="1256.44,-258 1147.56,-258 1147.56,-222 1256.44,-222 1256.44,-258"/>
<text text-anchor="middle" x="1202" y="-235.8" font-family="Times,serif" font-size="14.00">AppComponent </text>
</g>
<!-- AppModule&#45;&gt;AppComponent  -->
<g id="edge17" class="edge">
<title>AppModule&#45;&gt;AppComponent </title>
<path fill="none" stroke="black" stroke-dasharray="1,5" d="M1202,-190.22C1202,-190.22 1202,-211.73 1202,-211.73"/>
<polygon fill="black" stroke="black" points="1198.5,-211.73 1202,-221.73 1205.5,-211.73 1198.5,-211.73"/>
</g>
<!-- BrowserModule -->
<g id="node9" class="node">
<title>BrowserModule</title>
<polygon fill="#8dd3c7" stroke="black" points="2318.47,-122 2315.47,-126 2294.47,-126 2291.47,-122 2211.53,-122 2211.53,-86 2318.47,-86 2318.47,-122"/>
<text text-anchor="middle" x="2265" y="-99.8" font-family="Times,serif" font-size="14.00">BrowserModule</text>
</g>
<!-- BrowserModule&#45;&gt;AppModule -->
<g id="edge8" class="edge">
<title>BrowserModule&#45;&gt;AppModule</title>
<path fill="none" stroke="black" d="M2265,-122.09C2265,-145.13 2265,-182 2265,-182 2265,-182 1253.67,-182 1253.67,-182"/>
<polygon fill="black" stroke="black" points="1253.67,-178.5 1243.67,-182 1253.67,-185.5 1253.67,-178.5"/>
</g>
<!-- AppRoutingModule -->
<g id="node10" class="node">
<title>AppRoutingModule</title>
<polygon fill="#8dd3c7" stroke="black" points="2465.27,-122 2462.27,-126 2441.27,-126 2438.27,-122 2336.73,-122 2336.73,-86 2465.27,-86 2465.27,-122"/>
<text text-anchor="middle" x="2401" y="-99.8" font-family="Times,serif" font-size="14.00">AppRoutingModule</text>
</g>
<!-- AppRoutingModule&#45;&gt;AppModule -->
<g id="edge9" class="edge">
<title>AppRoutingModule&#45;&gt;AppModule</title>
<path fill="none" stroke="black" d="M2401,-122.2C2401,-146.36 2401,-186 2401,-186 2401,-186 1253.97,-186 1253.97,-186"/>
<polygon fill="black" stroke="black" points="1253.97,-182.5 1243.97,-186 1253.97,-189.5 1253.97,-182.5"/>
</g>
<!-- RouterModule  -->
<g id="node21" class="node">
<title>RouterModule </title>
<polygon fill="#fb8072" stroke="black" points="2606.65,-190 2505.35,-190 2505.35,-154 2606.65,-154 2606.65,-190"/>
<text text-anchor="middle" x="2556" y="-167.8" font-family="Times,serif" font-size="14.00">RouterModule </text>
</g>
<!-- AppRoutingModule&#45;&gt;RouterModule  -->
<g id="edge20" class="edge">
<title>AppRoutingModule&#45;&gt;RouterModule </title>
<path fill="none" stroke="black" stroke-dasharray="5,2" d="M2465.39,-110C2507.97,-110 2556,-110 2556,-110 2556,-110 2556,-143.73 2556,-143.73"/>
<polygon fill="black" stroke="black" points="2552.5,-143.73 2556,-153.73 2559.5,-143.73 2552.5,-143.73"/>
</g>
<!-- BrowserAnimationsModule -->
<g id="node11" class="node">
<title>BrowserAnimationsModule</title>
<polygon fill="#8dd3c7" stroke="black" points="2025.3,-122 2022.3,-126 2001.3,-126 1998.3,-122 1852.7,-122 1852.7,-86 2025.3,-86 2025.3,-122"/>
<text text-anchor="middle" x="1939" y="-99.8" font-family="Times,serif" font-size="14.00">BrowserAnimationsModule</text>
</g>
<!-- BrowserAnimationsModule&#45;&gt;AppModule -->
<g id="edge10" class="edge">
<title>BrowserAnimationsModule&#45;&gt;AppModule</title>
<path fill="none" stroke="black" d="M1939,-122.03C1939,-142.77 1939,-174 1939,-174 1939,-174 1253.74,-174 1253.74,-174"/>
<polygon fill="black" stroke="black" points="1253.74,-170.5 1243.74,-174 1253.74,-177.5 1253.74,-170.5"/>
</g>
<!-- MatFormFieldModule -->
<g id="node12" class="node">
<title>MatFormFieldModule</title>
<polygon fill="#8dd3c7" stroke="black" points="1834.71,-122 1831.71,-126 1810.71,-126 1807.71,-122 1693.29,-122 1693.29,-86 1834.71,-86 1834.71,-122"/>
<text text-anchor="middle" x="1764" y="-99.8" font-family="Times,serif" font-size="14.00">MatFormFieldModule</text>
</g>
<!-- MatFormFieldModule&#45;&gt;AppModule -->
<g id="edge11" class="edge">
<title>MatFormFieldModule&#45;&gt;AppModule</title>
<path fill="none" stroke="black" d="M1764,-122.03C1764,-141.58 1764,-170 1764,-170 1764,-170 1253.78,-170 1253.78,-170"/>
<polygon fill="black" stroke="black" points="1253.78,-166.5 1243.78,-170 1253.78,-173.5 1253.78,-166.5"/>
</g>
<!-- MatButtonModule -->
<g id="node13" class="node">
<title>MatButtonModule</title>
<polygon fill="#8dd3c7" stroke="black" points="1675.22,-122 1672.22,-126 1651.22,-126 1648.22,-122 1554.78,-122 1554.78,-86 1675.22,-86 1675.22,-122"/>
<text text-anchor="middle" x="1615" y="-99.8" font-family="Times,serif" font-size="14.00">MatButtonModule</text>
</g>
<!-- MatButtonModule&#45;&gt;AppModule -->
<g id="edge12" class="edge">
<title>MatButtonModule&#45;&gt;AppModule</title>
<path fill="none" stroke="black" d="M1615,-122.27C1615,-140.56 1615,-166 1615,-166 1615,-166 1253.87,-166 1253.87,-166"/>
<polygon fill="black" stroke="black" points="1253.87,-162.5 1243.87,-166 1253.87,-169.5 1253.87,-162.5"/>
</g>
<!-- FormsModule -->
<g id="node14" class="node">
<title>FormsModule</title>
<polygon fill="#8dd3c7" stroke="black" points="1536.83,-122 1533.83,-126 1512.83,-126 1509.83,-122 1441.17,-122 1441.17,-86 1536.83,-86 1536.83,-122"/>
<text text-anchor="middle" x="1489" y="-99.8" font-family="Times,serif" font-size="14.00">FormsModule</text>
</g>
<!-- FormsModule&#45;&gt;AppModule -->
<g id="edge13" class="edge">
<title>FormsModule&#45;&gt;AppModule</title>
<path fill="none" stroke="black" d="M1489,-122.03C1489,-139.06 1489,-162 1489,-162 1489,-162 1253.73,-162 1253.73,-162"/>
<polygon fill="black" stroke="black" points="1253.73,-158.5 1243.73,-162 1253.73,-165.5 1253.73,-158.5"/>
</g>
<!-- ReactiveFormsModule -->
<g id="node15" class="node">
<title>ReactiveFormsModule</title>
<polygon fill="#8dd3c7" stroke="black" points="1423.3,-122 1420.3,-126 1399.3,-126 1396.3,-122 1278.7,-122 1278.7,-86 1423.3,-86 1423.3,-122"/>
<text text-anchor="middle" x="1351" y="-99.8" font-family="Times,serif" font-size="14.00">ReactiveFormsModule</text>
</g>
<!-- ReactiveFormsModule&#45;&gt;AppModule -->
<g id="edge14" class="edge">
<title>ReactiveFormsModule&#45;&gt;AppModule</title>
<path fill="none" stroke="black" d="M1351,-122.28C1351,-137.95 1351,-158 1351,-158 1351,-158 1253.9,-158 1253.9,-158"/>
<polygon fill="black" stroke="black" points="1253.9,-154.5 1243.9,-158 1253.9,-161.5 1253.9,-154.5"/>
</g>
<!-- HttpClientModule -->
<g id="node16" class="node">
<title>HttpClientModule</title>
<polygon fill="#8dd3c7" stroke="black" points="1261.16,-122 1258.16,-126 1237.16,-126 1234.16,-122 1142.84,-122 1142.84,-86 1261.16,-86 1261.16,-122"/>
<text text-anchor="middle" x="1202" y="-99.8" font-family="Times,serif" font-size="14.00">HttpClientModule</text>
</g>
<!-- HttpClientModule&#45;&gt;AppModule -->
<g id="edge15" class="edge">
<title>HttpClientModule&#45;&gt;AppModule</title>
<path fill="none" stroke="black" d="M1202,-122.22C1202,-122.22 1202,-143.73 1202,-143.73"/>
<polygon fill="black" stroke="black" points="1198.5,-143.73 1202,-153.73 1205.5,-143.73 1198.5,-143.73"/>
</g>
<!-- MatSlideToggleModule -->
<g id="node17" class="node">
<title>MatSlideToggleModule</title>
<polygon fill="#8dd3c7" stroke="black" points="2193.04,-122 2190.04,-126 2169.04,-126 2166.04,-122 2042.96,-122 2042.96,-86 2193.04,-86 2193.04,-122"/>
<text text-anchor="middle" x="2118" y="-99.8" font-family="Times,serif" font-size="14.00">MatSlideToggleModule</text>
</g>
<!-- MatSlideToggleModule&#45;&gt;AppModule -->
<g id="edge16" class="edge">
<title>MatSlideToggleModule&#45;&gt;AppModule</title>
<path fill="none" stroke="black" d="M2118,-122.29C2118,-144.21 2118,-178 2118,-178 2118,-178 1253.74,-178 1253.74,-178"/>
<polygon fill="black" stroke="black" points="1253.74,-174.5 1243.74,-178 1253.74,-181.5 1253.74,-174.5"/>
</g>
<!-- Globals -->
<g id="node19" class="node">
<title>Globals</title>
<ellipse fill="#fdb462" stroke="black" cx="65" cy="-104" rx="41.15" ry="18"/>
<text text-anchor="middle" x="65" y="-99.8" font-family="Times,serif" font-size="14.00">Globals</text>
</g>
<!-- Globals&#45;&gt;AppModule -->
<g id="edge18" class="edge">
<title>Globals&#45;&gt;AppModule</title>
<path fill="none" stroke="black" d="M65,-122.2C65,-146.36 65,-186 65,-186 65,-186 1150.19,-186 1150.19,-186"/>
<polygon fill="black" stroke="black" points="1150.19,-189.5 1160.19,-186 1150.19,-182.5 1150.19,-189.5"/>
</g>
<!-- RouterModule.forRoot(args) -->
<g id="node20" class="node">
<title>RouterModule.forRoot(args)</title>
<polygon fill="#8dd3c7" stroke="black" points="2808.84,-190 2805.84,-194 2784.84,-194 2781.84,-190 2631.16,-190 2631.16,-154 2808.84,-154 2808.84,-190"/>
<text text-anchor="middle" x="2720" y="-167.8" font-family="Times,serif" font-size="14.00">RouterModule.forRoot(args)</text>
</g>
<!-- RouterModule.forRoot(args)&#45;&gt;AppRoutingModule -->
<g id="edge19" class="edge">
<title>RouterModule.forRoot(args)&#45;&gt;AppRoutingModule</title>
<path fill="none" stroke="black" d="M2720,-153.71C2720,-131.79 2720,-98 2720,-98 2720,-98 2475.55,-98 2475.55,-98"/>
<polygon fill="black" stroke="black" points="2475.55,-94.5 2465.55,-98 2475.55,-101.5 2475.55,-94.5"/>
</g>
</g>
</svg>
